HIERARCHY
ROOT Hips
{
	OFFSET 0.000000 0.000000 0.000000 
	CHANNELS 6 Xposition Yposition Zposition Yrotation Xrotation Zrotation
	JOINT Spine
	{
		OFFSET 0.000000 0.072080 0.012321 
		CHANNELS 3 Xrotation Yrotation Zrotation
		JOINT Spine1
		{
			OFFSET 0.000000 0.126984 -0.001294 
			CHANNELS 3 Xrotation Yrotation Zrotation
			JOINT Spine2
			{
				OFFSET 0.000000 0.106559 -0.010096 
				CHANNELS 3 Xrotation Yrotation Zrotation
				JOINT Neck
				{
					OFFSET 0.000000 0.108417 -0.034017 
					CHANNELS 3 Xrotation Yrotation Zrotation
					JOINT Neck1
					{
						OFFSET 0.000000 0.033906 0.007241 
						CHANNELS 3 Xrotation Yrotation Zrotation
						JOINT Head
						{
							OFFSET 0.000000 0.031458 0.006707 
							CHANNELS 3 Xrotation Yrotation Zrotation
							End Site
							{
								OFFSET 0.000000 0.179920 0.000962 
							}
						}
					}
				}
				JOINT LeftShoulder
				{
					OFFSET 0.048002 0.079586 -0.029634 
					CHANNELS 3 Zrotation Xrotation Yrotation
					JOINT LeftArm
					{
						OFFSET 0.096243 -0.008695 -0.014012 
						CHANNELS 3 Zrotation Xrotation Yrotation
						JOINT LeftForeArm
						{
							OFFSET 0.216305 0.000000 0.000000 
							CHANNELS 3 Xrotation Zrotation Yrotation
							JOINT LeftHand
							{
								OFFSET 0.217764 0.000000 0.000000 
								CHANNELS 3 Zrotation Yrotation Xrotation
								JOINT LeftHandThumb1
								{
									OFFSET 0.018582 -0.007835 0.020476 
									CHANNELS 3 Zrotation Xrotation Yrotation
									JOINT LeftHandThumb2
									{
										OFFSET 0.026269 -0.007835 0.022186 
										CHANNELS 3 Zrotation Xrotation Yrotation
										JOINT LeftHandThumb3
										{
											OFFSET 0.035170 -0.010504 0.017018 
											CHANNELS 3 Zrotation Xrotation Yrotation
											End Site
											{
												OFFSET 0.020312 -0.007813 0.007813 
											}
										}
									}
								}
								JOINT LeftHandMiddle1
								{
									OFFSET 0.081749 0.004803 0.003358 
									CHANNELS 3 Zrotation Xrotation Yrotation
									JOINT LeftHandMiddle2
									{
										OFFSET 0.045251 0.000000 0.000000 
										CHANNELS 3 Zrotation Xrotation Yrotation
										JOINT LeftHandMiddle3
										{
											OFFSET 0.029009 0.000000 0.000000 
											CHANNELS 3 Zrotation Xrotation Yrotation
											End Site
											{
												OFFSET 0.017969 0.000000 0.000000 
											}
										}
									}
								}
								JOINT LeftHandIndex1
								{
									OFFSET 0.081207 0.004803 0.021137 
									CHANNELS 3 Zrotation Xrotation Yrotation
									JOINT LeftHandIndex2
									{
										OFFSET 0.043354 0.000000 0.000000 
										CHANNELS 3 Zrotation Xrotation Yrotation
										JOINT LeftHandIndex3
										{
											OFFSET 0.026493 0.000000 0.000000 
											CHANNELS 3 Zrotation Xrotation Yrotation
											End Site
											{
												OFFSET 0.019531 0.000000 0.000000 
											}
										}
									}
								}
								JOINT LeftHandRing1
								{
									OFFSET 0.080666 0.002509 -0.014652 
									CHANNELS 3 Zrotation Xrotation Yrotation
									JOINT LeftHandRing2
									{
										OFFSET 0.042541 0.000000 0.000000 
										CHANNELS 3 Zrotation Xrotation Yrotation
										JOINT LeftHandRing3
										{
											OFFSET 0.029009 0.000000 0.000000 
											CHANNELS 3 Zrotation Xrotation Yrotation
											End Site
											{
												OFFSET 0.015625 0.000000 0.000000 
											}
										}
									}
								}
								JOINT LeftHandPinky1
								{
									OFFSET 0.078227 -0.000612 -0.030993 
									CHANNELS 3 Zrotation Xrotation Yrotation
									JOINT LeftHandPinky2
									{
										OFFSET 0.028721 0.000000 0.000000 
										CHANNELS 3 Zrotation Xrotation Yrotation
										JOINT LeftHandPinky3
										{
											OFFSET 0.021963 0.000000 0.000000 
											CHANNELS 3 Zrotation Xrotation Yrotation
											End Site
											{
												OFFSET 0.022656 0.000000 0.000000 
											}
										}
									}
								}
							}
						}
					}
				}
				JOINT RightShoulder
				{
					OFFSET -0.047970 0.079586 -0.029634 
					CHANNELS 3 Zrotation Xrotation Yrotation
					JOINT RightArm
					{
						OFFSET -0.096274 -0.008695 -0.014012 
						CHANNELS 3 Zrotation Xrotation Yrotation
						JOINT RightForeArm
						{
							OFFSET -0.216305 0.000000 0.000000 
							CHANNELS 3 Xrotation Zrotation Yrotation
							JOINT RightHand
							{
								OFFSET -0.217764 0.000000 0.000000 
								CHANNELS 3 Zrotation Yrotation Xrotation
								JOINT RightHandThumb1
								{
									OFFSET -0.019670 -0.007318 0.019638 
									CHANNELS 3 Zrotation Xrotation Yrotation
									JOINT RightHandThumb2
									{
										OFFSET -0.025498 -0.008492 0.023179 
										CHANNELS 3 Zrotation Xrotation Yrotation
										JOINT RightHandThumb3
										{
											OFFSET -0.034504 -0.010705 0.016680 
											CHANNELS 3 Zrotation Xrotation Yrotation
											End Site
											{
												OFFSET -0.020312 -0.007813 0.007813 
											}
										}
									}
								}
								JOINT RightHandIndex1
								{
									OFFSET -0.081770 0.003825 0.021187 
									CHANNELS 3 Zrotation Xrotation Yrotation
									JOINT RightHandIndex2
									{
										OFFSET -0.042006 0.000000 0.000000 
										CHANNELS 3 Zrotation Xrotation Yrotation
										JOINT RightHandIndex3
										{
											OFFSET -0.026449 0.000000 0.000000 
											CHANNELS 3 Zrotation Xrotation Yrotation
											End Site
											{
												OFFSET -0.020312 0.000000 0.000000 
											}
										}
									}
								}
								JOINT RightHandMiddle1
								{
									OFFSET -0.084059 0.003825 0.003342 
									CHANNELS 3 Zrotation Xrotation Yrotation
									JOINT RightHandMiddle2
									{
										OFFSET -0.043881 0.000000 0.000000 
										CHANNELS 3 Zrotation Xrotation Yrotation
										JOINT RightHandMiddle3
										{
											OFFSET -0.029191 0.000000 0.000000 
											CHANNELS 3 Zrotation Xrotation Yrotation
											End Site
											{
												OFFSET -0.017969 0.000000 0.000000 
											}
										}
									}
								}
								JOINT RightHandRing1
								{
									OFFSET -0.081798 0.003030 -0.015127 
									CHANNELS 3 Zrotation Xrotation Yrotation
									JOINT RightHandRing2
									{
										OFFSET -0.042198 0.000000 0.000000 
										CHANNELS 3 Zrotation Xrotation Yrotation
										JOINT RightHandRing3
										{
											OFFSET -0.026497 0.000000 0.000000 
											CHANNELS 3 Zrotation Xrotation Yrotation
											End Site
											{
												OFFSET -0.017188 0.000000 0.000000 
											}
										}
									}
								}
								JOINT RightHandPinky1
								{
									OFFSET -0.077902 -0.000930 -0.030891 
									CHANNELS 3 Zrotation Xrotation Yrotation
									JOINT RightHandPinky2
									{
										OFFSET -0.028538 0.000000 0.000000 
										CHANNELS 3 Zrotation Xrotation Yrotation
										JOINT RightHandPinky3
										{
											OFFSET -0.021734 0.000000 0.000000 
											CHANNELS 3 Zrotation Xrotation Yrotation
											End Site
											{
												OFFSET -0.022656 0.000000 0.000000 
											}
										}
									}
								}
							}
						}
					}
				}
			}
		}
	}
	JOINT LeftUpLeg
	{
		OFFSET 0.075264 -0.025573 0.000000 
		CHANNELS 3 Xrotation Yrotation Zrotation
		JOINT LeftLeg
		{
			OFFSET 0.000000 -0.326016 -0.013516 
			CHANNELS 3 Xrotation Yrotation Zrotation
			JOINT LeftFoot
			{
				OFFSET 0.000098 -0.306172 -0.006623 
				CHANNELS 3 Xrotation Yrotation Zrotation
				JOINT LeftToeBase
				{
					OFFSET -0.001432 -0.095259 0.064705 
					CHANNELS 3 Xrotation Yrotation Zrotation
					End Site
					{
						OFFSET 0.000000 0.000000 0.079438 
					}
				}
			}
		}
	}
	JOINT RightUpLeg
	{
		OFFSET -0.075264 -0.025573 0.000000 
		CHANNELS 3 Xrotation Yrotation Zrotation
		JOINT RightLeg
		{
			OFFSET 0.000000 -0.326016 -0.013516 
			CHANNELS 3 Xrotation Yrotation Zrotation
			JOINT RightFoot
			{
				OFFSET 0.000098 -0.306172 -0.006623 
				CHANNELS 3 Xrotation Yrotation Zrotation
				JOINT RightToeBase
				{
					OFFSET -0.001432 -0.095259 0.064705 
					CHANNELS 3 Xrotation Yrotation Zrotation
					End Site
					{
						OFFSET 0.000025 0.000000 0.079438 
					}
				}
			}
		}
	}
}
MOTION
Frames: 6
Frame Time: 0.033333
0.036803 0.649096 1.185812 1.290900 5.384200 -18.400999 11.212100 12.611000 0.936100 0.247300 3.320400 0.400300 0.258700 3.297900 0.404200 -6.998700 1.778200 -0.057800 -0.000000 0.000000 -0.000000 -13.218300 12.347900 -3.484800 -13.757200 0.227200 2.392700 -66.936302 19.561501 36.731899 -0.000000 -0.000000 -58.669601 -3.799400 2.556900 13.372000 13.949200 -2.056000 3.992500 -14.973000 2.434500 5.573000 20.324600 -15.071200 -35.550400 -36.981701 0.003400 -8.386400 -58.042999 0.007100 -0.012800 -25.627100 0.001500 -0.006500 -16.292999 0.770600 -15.873300 -71.016403 0.010100 -0.014200 -22.534700 0.001200 -0.005800 -40.507198 0.004100 -7.055400 -68.878601 0.009600 -0.014000 -20.818800 0.001000 -0.005300 -46.335602 -1.278000 -5.037500 -49.656799 0.005300 -0.011500 -25.872700 0.001500 -0.006600 18.320299 2.972900 8.092000 34.519501 -9.645200 3.380400 -0.000000 -0.000000 81.507401 -15.925700 9.596300 13.746200 4.442100 -3.850900 -5.137700 3.501400 9.866000 -14.638900 -11.873300 -15.870900 19.167700 62.537399 2.216500 7.957200 65.167297 0.004600 0.007200 39.313499 0.001800 0.005000 65.164803 0.004900 6.590400 76.382004 0.006100 0.007700 59.542801 0.003900 0.006800 79.080200 0.006700 8.505000 82.277100 0.006900 0.007800 48.522202 0.002700 0.005900 83.904404 -0.252900 6.063000 85.744904 0.007300 0.007900 75.821899 0.006000 0.007700 -60.555099 5.640800 -0.965000 107.313301 2.465600 -0.356500 -5.074100 -1.436300 -0.461900 -1.132200 0.000000 -0.000000 -6.932000 -2.585700 -4.292000 34.269402 0.229700 -3.634600 -15.640300 -0.152500 23.801399 -9.538300 -0.069900 2.684900 
0.068300 0.663409 1.290862 6.484300 7.022000 -15.655000 10.489200 12.725000 -1.469800 -0.025600 3.485300 0.011300 -0.025100 3.476900 0.013200 -6.885200 1.490000 -0.129900 -0.000000 0.000000 -0.000000 -11.025500 8.908600 -3.323900 -13.170800 0.292600 2.032800 -65.862198 22.238199 43.190498 0.000000 -0.000000 -64.098503 -5.432200 3.116600 13.890500 13.949200 -2.056000 3.992500 -15.191100 2.412500 4.576400 19.883101 -15.251800 -36.630199 -35.958900 0.003200 -8.375500 -56.987099 0.006800 -0.012600 -24.592699 0.001400 -0.006300 -15.299700 0.493500 -15.929100 -69.982300 0.009900 -0.014100 -21.500601 0.001000 -0.005500 -39.481098 0.003900 -7.046200 -67.829002 0.009400 -0.013900 -19.784401 0.000900 -0.005100 -45.305500 -1.346200 -5.031000 -48.620300 0.005100 -0.011300 -24.838699 0.001400 -0.006300 17.800301 2.486200 6.367200 30.831100 -11.580900 1.243800 -0.000000 -0.000100 92.322304 -18.438299 8.682500 15.335100 4.442100 -3.850900 -5.137700 3.702500 9.859700 -17.885099 -12.327900 -15.105200 16.044300 65.690002 2.564300 7.882900 68.363701 0.005000 0.007400 42.495602 0.002100 0.005300 68.325401 0.005300 6.572200 79.606400 0.006500 0.007800 62.723701 0.004300 0.007100 82.226402 0.007100 8.481500 85.528999 0.007300 0.007900 51.702400 0.003000 0.006200 87.068497 -0.115500 6.050800 88.947998 0.007800 0.007900 79.003700 0.006400 0.007800 -64.830704 4.848500 -5.078100 92.392403 6.507300 -1.204800 -7.080600 -1.410400 -2.276900 -1.510800 -0.000000 -0.000000 2.068700 -4.975300 -7.403300 28.890100 -1.236000 -3.328200 -2.250500 0.836600 23.341200 -14.286200 0.000000 -0.000000 
0.098213 0.669006 1.391054 10.498800 8.609600 -14.909600 10.009000 13.449700 -2.070200 -0.636000 3.696600 -0.247700 -0.636600 3.692400 -0.266100 -6.942600 1.166800 -0.078500 -0.000000 0.000000 -0.000000 -9.773000 6.072600 -2.869900 -13.241600 0.365900 1.674600 -64.208000 23.320200 47.778099 -0.000000 -0.000000 -69.128403 -5.617000 3.260500 13.636100 13.949200 -2.056000 3.992500 -15.204200 2.412500 4.634700 19.890600 -15.245400 -36.578701 -36.009998 0.003200 -8.381000 -57.039398 0.006900 -0.012600 -24.644600 0.001400 -0.006300 -15.349500 0.508300 -15.931400 -70.033897 0.009900 -0.014100 -21.552200 0.001100 -0.005500 -39.532299 0.003900 -7.050800 -67.881104 0.009400 -0.013900 -19.836201 0.000900 -0.005100 -45.356998 -1.329900 -5.034100 -48.670898 0.005100 -0.011300 -24.890400 0.001400 -0.006300 18.227100 2.019300 4.374400 27.231199 -15.384400 -0.396800 0.000000 -0.000000 100.277199 -18.398001 8.674000 17.979200 4.442200 -3.850900 -5.137700 3.932300 9.831700 -20.123400 -12.510200 -14.595400 13.957300 67.845200 2.802100 7.832100 70.548103 0.005300 0.007500 44.670502 0.002300 0.005600 70.485397 0.005600 6.559700 81.810097 0.006800 0.007800 64.897697 0.004600 0.007200 84.376701 0.007400 8.465400 87.751404 0.007600 0.007900 53.875801 0.003300 0.006400 89.231102 -0.021600 6.042700 91.137100 0.008100 0.007900 81.178398 0.006700 0.007800 -67.119698 3.734200 -6.550700 75.148903 7.037500 -2.044800 -6.993200 -1.534900 -1.988100 -1.271000 0.000000 0.000000 6.982700 -6.431100 -8.250000 29.363001 -1.481600 -2.302000 8.723100 0.973200 21.578899 -15.139200 0.000000 -0.000000 
0.133657 0.680709 1.495038 11.850200 9.656600 -16.284700 7.575600 14.501700 -1.040300 -0.538100 3.920100 -0.149800 -0.536100 3.913300 -0.156000 -7.080600 0.997200 0.040100 -0.000000 0.000000 -0.000000 -9.994100 5.249400 -2.633100 -13.708600 0.361600 1.735600 -64.178101 21.319401 47.127602 0.000000 -0.000000 -67.372299 -3.732300 3.283000 11.907200 13.949200 -2.056000 3.992500 -15.169200 2.420100 5.254100 20.094500 -15.144400 -35.952099 -36.613300 0.003300 -8.406900 -57.660500 0.007000 -0.012700 -25.255899 0.001400 -0.006400 -15.936000 0.675600 -15.918500 -70.643600 0.010000 -0.014200 -22.161900 0.001100 -0.005700 -40.137501 0.004000 -7.072700 -68.499298 0.009500 -0.014000 -20.446899 0.000900 -0.005200 -45.964699 -1.239600 -5.049800 -49.277302 0.005200 -0.011400 -25.500401 0.001500 -0.006500 18.708401 1.854200 3.585000 27.269199 -16.781799 -1.511800 0.000000 0.000000 101.720901 -18.601101 9.829500 19.650801 4.442100 -3.850900 -5.137600 4.017900 9.817800 -20.796000 -12.542400 -14.447000 13.341400 68.489899 2.869300 7.818000 71.202202 0.005400 0.007500 45.321098 0.002300 0.005600 71.131599 0.005700 6.557100 82.469299 0.006900 0.007800 65.548203 0.004600 0.007200 85.019997 0.007500 8.462000 88.416298 0.007700 0.007900 54.526199 0.003300 0.006500 89.877998 0.008200 6.040700 91.791901 0.008200 0.007900 81.828903 0.006800 0.007800 -64.260696 2.299500 -5.235100 53.467602 4.153600 -2.392400 -7.080100 -1.784900 0.931700 -1.249000 -0.000000 -0.000000 11.679800 -5.335500 -6.894100 30.119301 -2.064500 -2.504800 8.904900 0.806400 21.473301 -4.942700 0.000000 -0.000000 
0.169640 0.684767 1.597800 11.888200 9.466300 -18.093800 5.447500 14.407400 0.325100 -0.182900 3.844700 0.196200 -0.176600 3.831600 0.207800 -7.057500 1.096200 0.176000 -0.000000 0.000000 -0.000000 -10.407300 6.662000 -2.881600 -14.171800 0.134400 2.850500 -65.575401 18.665701 44.653301 -0.000000 0.000000 -64.163803 -3.070200 3.524700 11.584300 13.949200 -2.056000 3.992500 -15.132100 2.430100 6.258100 20.412100 -14.976200 -34.940102 -37.591099 0.003500 -8.448700 -58.667099 0.007200 -0.012800 -26.246500 0.001600 -0.006600 -16.886801 0.946900 -15.897800 -71.631798 0.010300 -0.014300 -23.150101 0.001200 -0.005900 -41.118301 0.004200 -7.108100 -69.501099 0.009800 -0.014100 -21.436701 0.001000 -0.005500 -46.949600 -1.093200 -5.075200 -50.260101 0.005400 -0.011600 -26.489000 0.001600 -0.006700 18.441700 2.101100 4.580600 29.465000 -14.103700 -2.421700 0.000000 0.000000 98.413399 -19.899099 9.645800 18.961700 4.442100 -3.850900 -5.137700 3.978700 9.822900 -20.216400 -12.479000 -14.585300 13.889200 67.927696 2.753100 7.846500 70.641197 0.005300 0.007500 44.754902 0.002300 0.005600 70.569000 0.005600 6.575500 81.895203 0.006800 0.007800 64.983200 0.004600 0.007200 84.459900 0.007400 8.485700 87.837303 0.007600 0.007900 53.961700 0.003300 0.006400 89.315002 0.008100 6.046300 91.219299 0.008100 0.007900 81.262703 0.006700 0.007800 -59.543201 2.147100 -2.679400 35.362598 -0.751400 -2.798600 -8.257700 -2.075400 8.484300 -0.192200 0.000000 -0.000000 13.078000 -3.984400 -6.739900 37.923000 -2.472100 -3.357600 5.154500 -1.327800 24.190701 8.340600 -0.000000 0.000000 
0.204412 0.678044 1.697321 12.143500 8.206400 -19.010500 5.253000 13.570000 0.977700 -0.055000 3.577500 0.363700 -0.046200 3.560900 0.369400 -6.841700 1.281600 0.360100 -0.000000 0.000000 -0.000000 -10.211800 8.833600 -2.972700 -14.824800 -0.107300 3.988200 -66.514000 18.092300 41.270401 -0.000000 -0.000000 -61.920399 -3.140000 2.175900 13.089900 13.949200 -2.056000 3.992500 -15.120100 2.437300 7.524000 20.790300 -14.758000 -33.669800 -38.824402 0.003700 -8.501600 -59.936901 0.007500 -0.013000 -27.496099 0.001700 -0.006900 -18.086500 1.289100 -15.872100 -72.878403 0.010600 -0.014400 -24.396700 0.001300 -0.006200 -42.355499 0.004400 -7.152700 -70.764702 0.010100 -0.014200 -22.685200 0.001200 -0.005800 -48.191700 -0.908500 -5.107200 -51.499802 0.005700 -0.011800 -27.736000 0.001700 -0.007000 18.150101 2.364200 5.661400 32.088402 -8.433900 -4.638700 0.000000 0.000000 92.889099 -18.783800 9.455600 21.065300 4.442100 -3.850900 -5.137700 3.910800 9.826600 -18.955999 -12.314800 -14.891000 15.094200 66.700996 2.499400 7.908800 69.416801 0.005100 0.007400 43.519199 0.002200 0.005500 69.341202 0.005400 6.615800 80.642197 0.006600 0.007800 63.750198 0.004400 0.007100 83.237297 0.007300 8.537400 86.573601 0.007400 0.007900 52.729698 0.003100 0.006300 88.085999 0.008000 6.059700 89.969704 0.007900 0.007900 80.027000 0.006500 0.007800 -55.695000 2.501500 -1.221700 27.939699 -3.482700 -2.534200 -9.216900 0.880100 12.198400 -0.678200 -0.000000 0.000000 9.642100 -2.137800 -8.281400 54.867401 -6.821400 -3.974600 3.948200 -2.111800 24.232401 17.772499 -0.000000 0.000000 
